<svg viewBox="0 0 65 65" xmlns="http://www.w3.org/2000/svg">
  <path d="M25.1026286,38.9413762 C24.809819,38.9413762 24.5176286,38.8299476 24.2947714,38.6064714 C23.8484381,38.1601381 23.8484381,37.4364714 24.2947714,36.9907571 L29.2465333,32.0383762 C29.6934857,31.5914238 30.4165333,31.5914238 30.8628667,32.0377571 C31.3092,32.4840905 31.3092,33.2077571 30.8628667,33.6540905 L25.9111048,38.6064714 C25.6876286,38.8299476 25.3954381,38.9413762 25.1026286,38.9413762"></path>
  <path d="M18.8241857,45.2195095 C18.5313762,45.2195095 18.2391857,45.108081 18.0163286,44.8846048 C17.5699952,44.4382714 17.5699952,43.7146048 18.0163286,43.2688905 L22.1806619,39.1039381 C22.6269952,38.6569857 23.3506619,38.6569857 23.7969952,39.1039381 C24.2433286,39.5502714 24.2433286,40.2739381 23.7969952,40.7196524 L19.6320429,44.8846048 C19.4091857,45.108081 19.1169952,45.2195095 18.8241857,45.2195095"></path>
  <path d="M22.9525524,46.5234714 C22.6597429,46.5234714 22.3675524,46.4120429 22.1446952,46.1885667 C21.6983619,45.7422333 21.6983619,45.0185667 22.1446952,44.5728524 L25.9704095,40.7471381 C26.4161238,40.3001857 27.1397905,40.3001857 27.5861238,40.7471381 C28.0324571,41.1934714 28.0324571,41.9171381 27.5861238,42.3628524 L23.7604095,46.1885667 C23.5375524,46.4120429 23.2453619,46.5234714 22.9525524,46.5234714"></path>
  <path d="M17.5201619,41.0917 C17.2273524,41.0917 16.9351619,40.9802714 16.7123048,40.7567952 C16.2659714,40.3104619 16.2659714,39.5867952 16.7116857,39.141081 L20.538019,35.3147476 C20.9843524,34.8677952 21.708019,34.8684143 22.1537333,35.3141286 C22.6006857,35.761081 22.6006857,36.4847476 22.1543524,36.9304619 L18.3286381,40.7567952 C18.1051619,40.9802714 17.8129714,41.0917 17.5201619,41.0917"></path>
  <path d="M15.8761571,48.1678476 C15.5833476,48.1678476 15.2911571,48.056419 15.0683,47.8329429 C14.6219667,47.3866095 14.6219667,46.6629429 15.0683,46.2172286 L15.7752524,45.5096571 C16.2215857,45.0627048 16.9452524,45.0627048 17.3915857,45.5096571 C17.837919,45.9559905 17.837919,46.6796571 17.3915857,47.1253714 L16.6840143,47.8329429 C16.4611571,48.056419 16.1689667,48.1678476 15.8761571,48.1678476"></path>
  <path d="M20.1976667,32.9642857 C19.9611905,32.9642857 19.7222381,32.8912381 19.5173333,32.7389524 L15.3573333,29.653 C15.0905238,29.4549048 14.9227619,29.1509524 14.898619,28.8191429 C14.8744762,28.4879524 14.9951905,28.1623333 15.2304286,27.9270952 L18.8054286,24.3508571 C19.0827619,24.0735238 19.4826667,23.9571429 19.8658571,24.0438095 L22.3847619,24.6133333 C23.0000952,24.752619 23.386381,25.3648571 23.2477143,25.9801905 C23.1084286,26.5961429 22.4999048,26.9824286 21.8808571,26.8431429 L19.9766667,26.4122857 L17.783381,28.6061905 L20.8798571,30.9034762 C21.3862381,31.2798571 21.4927143,31.9954762 21.1163333,32.5024762 C20.8922381,32.8045714 20.5468095,32.9642857 20.1976667,32.9642857"></path>
  <path d="M34.1655476,48.0052238 C34.1376905,48.0052238 34.1098333,48.0039857 34.0813571,48.0021286 C33.7501667,47.9779857 33.4455952,47.8102238 33.248119,47.5434143 L30.1609286,43.3827952 C29.7845476,42.8757952 29.8910238,42.1601762 30.3980238,41.7844143 C30.9050238,41.4074143 31.6212619,41.5132714 31.9964048,42.0208905 L34.2943095,45.1173667 L36.4875952,42.9234619 L36.0579762,41.0192714 C35.9186905,40.403319 36.3049762,39.7917 36.9203095,39.6524143 C37.5399762,39.5149857 38.149119,39.9000333 38.2871667,40.5153667 L38.8560714,43.0342714 C38.9427381,43.4162238 38.8263571,43.8167476 38.5496429,44.094081 L34.9740238,47.670319 C34.7585952,47.8857476 34.4676429,48.0052238 34.1655476,48.0052238"></path>
  <path d="M32.3791619,41.2234952 C30.8711619,41.2234952 29.2071619,40.6211619 27.5481143,39.4728286 C27.0287333,39.1131619 26.8993524,38.4012571 27.259019,37.8824952 C27.6180667,37.3631143 28.3293524,37.2343524 28.8487333,37.5934 C30.093019,38.4544952 31.2803524,38.9156857 32.2999238,38.9373524 C44.7198762,32.7871143 46.6444952,19.9177333 46.9416381,15.9583048 C42.9834476,16.2560667 30.1128286,18.1813048 23.9632095,30.600019 C23.9954,32.1643524 25.0644952,34.1056857 26.9296857,35.9714952 C27.3754,36.4172095 27.3754,37.1408762 26.9290667,37.5872095 C26.4827333,38.0335429 25.7596857,38.0341619 25.3127333,37.5872095 C22.8718286,35.1450667 21.5823524,32.5494 21.682019,30.2781143 C21.6888286,30.1227333 21.7272095,29.9704476 21.7946857,29.8305429 C29.545781,13.8058762 47.4789714,13.6189238 48.1351619,13.6189238 L48.1524952,13.6189238 C48.772781,13.6263524 49.2742095,14.127781 49.2816381,14.7480667 C49.2841143,14.9325429 49.3132095,33.2483048 33.0694,41.1052571 C32.9294952,41.1727333 32.7772095,41.2111143 32.6218286,41.2179238 C32.5413524,41.2216381 32.4602571,41.2234952 32.3791619,41.2234952"></path>
  <path d="M36.3471952,23.385081 C35.5015762,23.385081 34.706719,23.7144143 34.108719,24.3124143 C33.510719,24.9104143 33.1813857,25.7052714 33.1813857,26.5521286 C33.1813857,27.3983667 33.510719,28.1938429 34.108719,28.7918429 C35.3431,30.0262238 37.3525286,30.0256048 38.5881476,28.7912238 C39.8219095,27.5568429 39.8219095,25.5480333 38.5869095,24.3124143 C37.9895286,23.7144143 37.1934333,23.385081 36.3478143,23.385081 L36.3471952,23.385081 Z M36.3478143,32.0022238 C34.9512429,32.0022238 33.5552905,31.4704619 32.4923857,30.4075571 C31.4635286,29.378081 30.896481,28.0087476 30.8958619,26.5521286 C30.8958619,25.0948905 31.4629095,23.7255571 32.4923857,22.6967 C33.5212429,21.6666048 34.8911952,21.0995571 36.3478143,21.0995571 C37.8050524,21.0995571 39.1743857,21.6672238 40.2038619,22.6967 C42.3296714,24.8225095 42.3296714,28.2823667 40.204481,30.4075571 C40.204481,30.4081762 40.204481,30.4081762 40.2038619,30.4081762 C39.1409571,31.4704619 37.7443857,32.0022238 36.3478143,32.0022238 Z"></path>
  <path d="M27.1976095,33.0755286 C26.8701333,33.0755286 26.5457524,32.9356238 26.3198,32.6638619 C26.2393238,32.5679095 24.3462762,30.2669095 23.6418,27.2224333 C23.5000381,26.607719 23.8832286,25.9942429 24.4979429,25.8518619 C25.1126571,25.7088619 25.7261333,26.0926714 25.8691333,26.7073857 C26.4473238,29.207719 28.0618,31.1843381 28.0778952,31.2041476 C28.4790381,31.6901 28.412181,32.4100524 27.9268476,32.8124333 C27.7132762,32.9888619 27.4545143,33.0755286 27.1976095,33.0755286"></path>
  <path d="M35.9362714,39.2874857 C35.8508429,39.2874857 35.7647952,39.277581 35.6781286,39.2577714 C32.6342714,38.5545333 30.3326524,36.6614857 30.236081,36.5810095 C29.7513667,36.1773905 29.6851286,35.456819 30.0887476,34.9714857 C30.4929857,34.4867714 31.2135571,34.4211524 31.6982714,34.8241524 C31.7162238,34.8390095 33.6928429,36.4534857 36.1919381,37.0304381 C36.8072714,37.172819 37.1904619,37.7862952 37.0487,38.4016286 C36.9267476,38.9296762 36.4562714,39.2874857 35.9362714,39.2874857"></path>
  <path d="M47.1371333,22.7291381 C47.0058952,22.7291381 46.8728,22.7062333 46.7428,22.6585667 C43.8097524,21.5801857 41.3193238,19.088519 40.242181,16.1567095 C40.0255143,15.564281 40.3288476,14.9074714 40.9218952,14.6901857 C41.5118476,14.4716619 42.1711333,14.7768524 42.388419,15.369281 C43.2396095,17.6888524 45.2106571,19.6599 47.5314667,20.5135667 C48.1238952,20.7308524 48.4278476,21.3876619 48.2093238,21.9807095 C48.0397048,22.442519 47.6026571,22.7291381 47.1371333,22.7291381"></path>
  <path d="M29.0314762,47.6059381 C29.0314762,48.4608429 28.3381429,49.1535571 27.4838571,49.1535571 C26.6295714,49.1535571 25.9362381,48.4608429 25.9362381,47.6059381 C25.9362381,46.7510333 26.6295714,46.058319 27.4838571,46.058319 C28.3381429,46.058319 29.0314762,46.7510333 29.0314762,47.6059381"></path>
  <path d="M46.6595381,39.6320476 C46.6595381,40.4869524 45.9662048,41.1796667 45.111919,41.1796667 C44.2570143,41.1796667 43.5643,40.4869524 43.5643,39.6320476 C43.5643,38.7771429 44.2570143,38.0844286 45.111919,38.0844286 C45.9662048,38.0844286 46.6595381,38.7771429 46.6595381,39.6320476"></path>
  <path d="M22.9679667,17.7773762 C22.9679667,18.632281 22.2746333,19.3249952 21.4203476,19.3249952 C20.5660619,19.3249952 19.8727286,18.632281 19.8727286,17.7773762 C19.8727286,16.9224714 20.5660619,16.2297571 21.4203476,16.2297571 C22.2746333,16.2297571 22.9679667,16.9224714 22.9679667,17.7773762"></path>
  <path d="M30.6982,16.0961667 C30.6982,16.9510714 30.0048667,17.6437857 29.150581,17.6437857 C28.2962952,17.6437857 27.6029619,16.9510714 27.6029619,16.0961667 C27.6029619,15.2412619 28.2962952,14.5485476 29.150581,14.5485476 C30.0048667,14.5485476 30.6982,15.2412619 30.6982,16.0961667"></path>
</svg>