<svg viewBox="0 0 65 65" version="1.1" xmlns="http://www.w3.org/2000/svg" xmlns:xlink="http://www.w3.org/1999/xlink">
  <path d="M46.6600667,38.7762323 C46.2898444,39.8506194 43.6693259,46.1925226 32.5891037,49.4068774 C21.4887333,46.1874903 18.8795481,39.8304903 18.5181407,38.7774903 L18.5181407,18.5692 C20.7608815,19.8247484 22.8399185,20.4172968 24.9428815,20.4172968 C27.8517704,20.4172968 30.5679926,19.3152323 32.5878444,17.3539097 C34.6076963,19.3152323 37.3226593,20.4172968 40.2328074,20.4172968 C42.3672519,20.4172968 44.4097704,19.8385871 46.6600667,18.5704581 L46.6600667,38.7762323 Z M48.5011037,15.1711677 C48.0880667,14.9522645 47.5831037,14.9874903 47.1990296,15.2554581 C44.5747333,17.0859419 42.426437,17.9011677 40.2328074,17.9011677 C37.6022148,17.9011677 35.1819185,16.7387161 33.5927333,14.7132323 C33.1154741,14.1068452 32.0602148,14.1068452 31.5829556,14.7132323 C29.9937704,16.7387161 27.5734741,17.9011677 24.9428815,17.9011677 C22.7467333,17.9011677 20.5996963,17.0859419 17.9816963,15.2567161 C17.5976222,14.9862323 17.0939185,14.9522645 16.6771037,15.1711677 C16.2602889,15.3875548 15.9996222,15.8178129 15.9996222,16.287071 L15.9996222,38.9699742 C15.9996222,39.0832 16.0147333,39.1951677 16.0449556,39.3033613 C16.144437,39.6606516 18.6125852,48.1085548 32.250363,51.9267806 C32.3611778,51.9582323 32.4745111,51.973329 32.5891037,51.973329 C32.7036963,51.973329 32.8182889,51.9582323 32.9291037,51.9267806 C46.5631037,48.1098129 49.0350296,39.6619097 49.1332519,39.3046194 C49.1634741,39.1951677 49.1785852,39.0832 49.1785852,38.9699742 L49.1785852,16.287071 C49.1785852,15.8178129 48.9179185,15.3875548 48.5011037,15.1711677 Z"></path>
  <path d="M38.5227333,27.4536516 L29.9736222,35.9933935 L26.6554741,32.6796516 C26.164363,32.1890065 25.3080667,32.1890065 24.8156963,32.6796516 C24.3082148,33.1866516 24.3082148,34.0119419 24.8156963,34.5176839 L29.0518444,38.751071 C29.2986593,38.9976516 29.6260667,39.1322645 29.9736222,39.1322645 C30.322437,39.1322645 30.6511037,38.9963935 30.9054741,38.7397484 L40.3625111,29.2916839 C40.8687333,28.7859419 40.8699926,27.9606516 40.3637704,27.4549097 C39.8714,26.9604903 39.0125852,26.9617484 38.5227333,27.4536516"></path>
</svg>