<svg viewBox="0 0 65 65" xmlns="http://www.w3.org/2000/svg">
  <path d="M26.3502778,33.6519444 C24.1641111,33.6519444 22.386,35.4307778 22.386,37.6162222 C22.386,39.8023889 24.1641111,41.5812222 26.3502778,41.5812222 C28.5357222,41.5812222 30.3145556,39.8023889 30.3145556,37.6162222 C30.3145556,35.4307778 28.5357222,33.6519444 26.3502778,33.6519444 M26.3502778,43.1665 C23.2902222,43.1665 20.8,40.677 20.8,37.6162222 C20.8,34.5561667 23.2902222,32.0666667 26.3502778,32.0666667 C29.4103333,32.0666667 31.8998333,34.5561667 31.8998333,37.6162222 C31.8998333,40.677 29.4103333,43.1665 26.3502778,43.1665"></path>
  <path d="M23.9870222,50.1256167 L28.7443,50.1256167 L28.7443,48.0311722 C28.7443,47.6866722 28.9660222,47.3818944 29.2931889,47.27645 C30.5895778,46.8582833 31.7494667,46.19095 32.7410778,45.2946722 C32.9960222,45.0642833 33.3715778,45.0231167 33.6691333,45.19645 L35.4746889,46.2386167 L37.8529667,42.1197833 L36.0387444,41.0732833 C35.7404667,40.9013944 35.5873556,40.5561722 35.6595778,40.2196167 C35.9419667,38.9037278 35.9419667,37.5668944 35.6603,36.24595 C35.5880778,35.9093944 35.7411889,35.5656167 36.0387444,35.3937278 L37.8536889,34.3457833 L35.4746889,30.2262278 L33.6648,31.2720056 C33.3672444,31.44245 32.9924111,31.4027278 32.7381889,31.1745056 C31.7436889,30.2796722 30.5838,29.6123389 29.2917444,29.1920056 C28.9653,29.0851167 28.7443,28.7810611 28.7443,28.4380056 L28.7443,26.33995 L23.9870222,26.33995 L23.9870222,28.4343944 C23.9870222,28.77745 23.7653,29.0822278 23.4381333,29.1891167 C22.1403,29.6087278 20.9796889,30.2767833 19.9895222,31.1723389 C19.7345778,31.40345 19.3597444,31.4453389 19.0607444,31.2712833 L17.2544667,30.22695 L14.8761889,34.3465056 L16.6918556,35.3951722 C16.9901333,35.5670611 17.1425222,35.9115611 17.0703,36.2473944 C16.7886333,37.5647278 16.7886333,38.9015611 17.0703,40.2188944 C17.1425222,40.5547278 16.9901333,40.89995 16.6918556,41.0718389 L14.8761889,42.1197833 L17.2544667,46.2393389 L19.0643556,45.1942833 C19.3619111,45.0223944 19.7367444,45.0613944 19.9916889,45.2925056 C20.9854667,46.1880611 22.1453556,46.8553944 23.4388556,47.2750056 C23.7660222,47.38045 23.9870222,47.6852278 23.9870222,48.0290056 L23.9870222,50.1256167 Z M29.5373,51.7108944 L23.1940222,51.7108944 C22.7563556,51.7108944 22.4017444,51.3562833 22.4017444,50.9186167 L22.4017444,48.58945 C21.2960222,48.1683944 20.2813,47.5841167 19.3720222,46.8481722 L17.3606333,48.0087833 C16.9814667,48.2276167 16.4961333,48.0976167 16.2780222,47.71845 L13.1067444,42.22595 C13.0013,42.04395 12.9731333,41.8272833 13.0273,41.6243389 C13.0814667,41.4206722 13.2143556,41.2473389 13.3963556,41.1426167 L15.4128,39.9783944 C15.2264667,38.8185056 15.2264667,37.6485056 15.4128,36.4878944 L13.3963556,35.32295 C13.0171889,35.1041167 12.8871889,34.6195056 13.1067444,34.2403389 L16.2780222,28.7471167 C16.3827444,28.5651167 16.5560778,28.4322278 16.7597444,28.3780611 C16.9619667,28.3246167 17.1786333,28.3520611 17.3613556,28.4575056 L19.3676889,29.6173944 C20.2755222,28.8792833 21.2924111,28.2942833 22.4017444,27.8725056 L22.4017444,25.5476722 C22.4017444,25.1092833 22.7563556,24.7546722 23.1940222,24.7546722 L29.5373,24.7546722 C29.9749667,24.7546722 30.3295778,25.1092833 30.3295778,25.5476722 L30.3295778,27.8768389 C31.4338556,28.2986167 32.4478556,28.8821722 33.3571333,29.6181167 L35.3685222,28.4567833 C35.7484111,28.2372278 36.2337444,28.36795 36.4518556,28.7471167 L39.6231333,34.2403389 C39.7278556,34.4223389 39.7567444,34.6390056 39.7025778,34.84195 C39.6476889,35.0448944 39.5148,35.2175056 39.3328,35.3236722 L37.3178,36.48645 C37.5041333,37.64995 37.5041333,38.8206722 37.3178,39.9798389 L39.3328,41.1426167 C39.5148,41.2473389 39.6476889,41.4206722 39.7025778,41.6243389 C39.7567444,41.8272833 39.7278556,42.04395 39.6231333,42.22595 L36.4518556,47.71845 C36.3464111,47.90045 36.1738,48.0340611 35.9701333,48.0882278 C35.7671889,48.1402278 35.5505222,48.1142278 35.3685222,48.0080611 L33.3621889,46.8496167 C32.4536333,47.5877278 31.4374667,48.1720056 30.3295778,48.5923389 L30.3295778,50.9186167 C30.3295778,51.3562833 29.9749667,51.7108944 29.5373,51.7108944 Z"></path>
  <path d="M43.0379444,19.7852778 C42.1633333,19.7852778 41.4519444,20.4966667 41.4519444,21.3705556 C41.4519444,22.2451667 42.1633333,22.9572778 43.0379444,22.9572778 C43.9125556,22.9572778 44.6239444,22.2451667 44.6239444,21.3705556 C44.6239444,20.4966667 43.9125556,19.7852778 43.0379444,19.7852778 M43.0379444,24.5425556 C41.2894444,24.5425556 39.8666667,23.1197778 39.8666667,21.3705556 C39.8666667,19.6220556 41.2894444,18.2 43.0379444,18.2 C44.7864444,18.2 46.2092222,19.6220556 46.2092222,21.3705556 C46.2092222,23.1197778 44.7864444,24.5425556 43.0379444,24.5425556"></path>
  <path d="M42.2224111,27.4924 L43.8084111,27.4924 L43.8084111,26.4531222 C43.8084111,26.1021222 44.0380778,25.7937333 44.3739111,25.6933444 C45.0838556,25.4802889 45.7215778,25.1112333 46.2683,24.5955667 C46.5232444,24.3550667 46.9053,24.3095667 47.2086333,24.4865111 L48.1106889,25.0072333 L48.9036889,23.6335667 L48.0030778,23.1142889 C47.6997444,22.9380667 47.5473556,22.5856222 47.6275222,22.2447333 C47.7965222,21.5297333 47.7936333,20.7952333 47.6188556,20.0614556 C47.5372444,19.7198444 47.6896333,19.3659556 47.9929667,19.1911778 L48.9036889,18.6646778 L48.1106889,17.2910111 L47.2006889,17.8160667 C46.8973556,17.9930111 46.5153,17.9460667 46.2603556,17.7062889 C45.7078556,17.1855667 45.0730222,16.8150667 44.3731889,16.6049 C44.0380778,16.5037889 43.8084111,16.1946778 43.8084111,15.8451222 L43.8084111,14.8072889 L42.2224111,14.8072889 L42.2224111,15.8472889 C42.2224111,16.1968444 41.9927444,16.5059556 41.6576333,16.6070667 C40.9440778,16.8208444 40.3063556,17.1891778 39.7618,17.7019556 C39.5075778,17.9424556 39.1248,17.9879556 38.8221889,17.8117333 L37.9194111,17.2910111 L37.1264111,18.6639556 L38.0255778,19.1832333 C38.3296333,19.3587333 38.4820222,19.7133444 38.4004111,20.0542333 C38.2306889,20.7677889 38.2335778,21.5030111 38.4083556,22.2396778 C38.4899667,22.5798444 38.3375778,22.9337333 38.0335222,23.1092333 L37.1264111,23.6328444 L37.9194111,25.0072333 L38.8258,24.4836222 C39.1298556,24.3066778 39.5133556,24.3529 39.7675778,24.5934 C40.3215222,25.1170111 40.9570778,25.4889556 41.6561889,25.6969556 C41.9920222,25.7966222 42.2224111,26.1057333 42.2224111,26.4560111 L42.2224111,27.4924 Z M44.6006889,29.0776778 L41.4294111,29.0776778 C40.9917444,29.0776778 40.6371333,28.7230667 40.6371333,28.2854 L40.6371333,27.0171778 C40.1005222,26.7983444 39.5971333,26.5044 39.1320222,26.1382333 L38.0263,26.7766778 C37.8443,26.8814 37.6283556,26.9095667 37.4239667,26.8561222 C37.2210222,26.8019556 37.0476889,26.6683444 36.9429667,26.4863444 L35.3569667,23.7397333 C35.1381333,23.3598444 35.2681333,22.8752333 35.6473,22.6571222 L36.7537444,22.0179556 C36.6699667,21.4344 36.6678,20.8522889 36.7472444,20.2766778 L35.6473,19.6418444 C35.4653,19.5356778 35.3324111,19.3630667 35.2775222,19.1601222 C35.2233556,18.9571778 35.2522444,18.7405111 35.3569667,18.5585111 L36.9429667,15.8111778 C37.0476889,15.6291778 37.2210222,15.4962889 37.4239667,15.4414 C37.6283556,15.3886778 37.8443,15.4154 38.0255778,15.5215667 L39.1298556,16.1585667 C39.5891889,15.8010667 40.0983556,15.5064 40.6371333,15.2875667 L40.6371333,14.0142889 C40.6371333,13.5759 40.9917444,13.2212889 41.4294111,13.2212889 L44.6006889,13.2212889 C45.0390778,13.2212889 45.3936889,13.5759 45.3936889,14.0142889 L45.3936889,15.2854 C45.9295778,15.5042333 46.4315222,15.7974556 46.8951889,16.1621778 L48.0045222,15.5215667 C48.1865222,15.4154 48.4024667,15.3886778 48.6061333,15.4414 C48.8090778,15.4962889 48.9824111,15.6291778 49.0871333,15.8111778 L50.6731333,18.5585111 C50.8919667,18.9376778 50.7626889,19.4222889 50.3835222,19.6411222 L49.2734667,20.2824556 C49.3572444,20.8638444 49.3594111,21.4452333 49.2806889,22.0201222 L50.3828,22.6564 C50.5648,22.7611222 50.6976889,22.9344556 50.7525778,23.1381222 C50.8067444,23.3410667 50.7785778,23.5577333 50.6731333,23.7397333 L49.0871333,26.4863444 C48.9824111,26.6683444 48.8090778,26.8019556 48.6061333,26.8561222 C48.4024667,26.9095667 48.1865222,26.8814 48.0045222,26.7766778 L46.9009667,26.1396778 C46.4401889,26.4979 45.9310222,26.7925667 45.3936889,27.0128444 L45.3936889,28.2854 C45.3936889,28.7230667 45.0390778,29.0776778 44.6006889,29.0776778 Z"></path>
</svg>